<svg version="1.2" xmlns="http://www.w3.org/2000/svg" viewBox="0 0 375 800" width="375" height="800"><defs><linearGradient id="P" gradientUnits="userSpaceOnUse"/><linearGradient id="g1" x2="1" href="#P" gradientTransform="matrix(-708.447,795.105,-250.199,-222.93,430.85,-678.949)"><stop stop-color="#ff52c1" stop-opacity="1"/><stop offset="1" stop-color="#9952ff" stop-opacity=".01"/></linearGradient><linearGradient id="g2" x2="1" href="#P" gradientTransform="matrix(560.024,763.456,-434.438,318.676,-55.85,-456.955)"><stop stop-color="#ff52c1" stop-opacity="1"/><stop offset="1" stop-color="#9952ff" stop-opacity=".01"/></linearGradient><linearGradient id="g3" x2="1" href="#P" gradientTransform="matrix(-3.248,52.421,-52.421,-3.248,309.89,164.66)"><stop stop-color="#ff52c1"/><stop offset="1" stop-color="#9952ff"/></linearGradient><linearGradient id="g4" x2="1" href="#P" gradientTransform="matrix(-1.044,16.849,-16.849,-1.044,115,361.177)"><stop stop-color="#ff52c1"/><stop offset="1" stop-color="#9952ff"/></linearGradient><linearGradient id="g5" x2="1" href="#P" gradientTransform="matrix(-2.089,33.699,-33.699,-2.089,150.001,334.353)"><stop stop-color="#ff52c1"/><stop offset="1" stop-color="#9952ff"/></linearGradient><linearGradient id="g6" x2="1" href="#P" gradientTransform="matrix(-1.624,26.21,-26.21,-1.624,128.273,78.83)"><stop stop-color="#ff52c1"/><stop offset="1" stop-color="#9952ff"/></linearGradient><linearGradient id="g7" x2="1" href="#P" gradientTransform="matrix(-1.973,31.827,-31.827,-1.973,311.112,334.222)"><stop stop-color="#ff52c1"/><stop offset="1" stop-color="#9952ff"/></linearGradient><linearGradient id="g8" x2="1" href="#P" gradientTransform="matrix(-4.872,78.631,-78.631,-4.872,29.235,258.288)"><stop stop-color="#ff52c1"/><stop offset="1" stop-color="#9952ff"/></linearGradient></defs><style>.a{fill:#684bb1}.b{fill:url(#g1)}.c{fill:url(#g2)}.d{opacity:.56;fill:url(#g3)}.e{opacity:.39;fill:url(#g4)}.f{opacity:.39;fill:url(#g5)}.g{opacity:.39;fill:url(#g6)}.h{opacity:.39;fill:url(#g7)}.i{opacity:.5;fill:url(#g8)}</style><path fill-rule="evenodd" class="a" d="m0 0h375v800h-375z"/><path fill-rule="evenodd" class="b" d="m0 265.7l319.7-265.7h55.3v73.6l-375 240.1z"/><path fill-rule="evenodd" class="c" d="m375 318.7l-375-216.7v119.2l375 139z"/><path fill-rule="evenodd" class="d" d="m334.9 163.1l15.6 15.6c1.1 1.1 1.1 3 0 4.2l-15.6 15.6c-1.2 1.1-3.1 1.1-4.2 0l-15.6-15.6c-1.2-1.2-1.2-3.1 0-4.2l15.6-15.6c1.1-1.2 3-1.2 4.2 0z"/><path fill-rule="evenodd" class="e" d="m123.1 360.7l4.9 5c0.4 0.3 0.4 1 0 1.4l-4.9 4.9c-0.4 0.4-1.1 0.4-1.4 0l-5-4.9c-0.4-0.4-0.4-1.1 0-1.4l5-5c0.3-0.4 1-0.4 1.4 0z"/><path fill-rule="evenodd" class="f" d="m165.4 332.7l11.3 11.3c0.4 0.4 0.4 1 0 1.4l-11.3 11.3c-0.4 0.4-1 0.4-1.4 0l-11.3-11.3c-0.4-0.4-0.4-1 0-1.4l11.3-11.3c0.4-0.4 1-0.4 1.4 0z"/><path fill-rule="evenodd" class="g" d="m140.4 77.7l8.5 8.5c0.4 0.4 0.4 1 0 1.4l-8.5 8.5c-0.4 0.4-1 0.4-1.4 0l-8.5-8.5c-0.4-0.4-0.4-1 0-1.4l8.5-8.5c0.4-0.4 1-0.4 1.4 0z"/><path fill-rule="evenodd" class="h" d="m325.7 332.7l10.6 10.6c0.4 0.4 0.4 1 0 1.4l-10.6 10.6c-0.4 0.4-1 0.4-1.4 0l-10.6-10.6c-0.4-0.4-0.4-1 0-1.4l10.6-10.6c0.4-0.4 1-0.4 1.4 0z"/><path fill-rule="evenodd" class="i" d="m65.7 254.9l25.5 25.5c1.1 1.1 1.1 3 0 4.2l-25.5 25.5c-1.2 1.1-3.1 1.1-4.2 0l-25.5-25.5c-1.2-1.2-1.2-3.1 0-4.2l25.5-25.5c1.1-1.2 3-1.2 4.2 0z"/></svg>