<svg width="768" height="1024" viewBox="0 0 768 1024" fill="none" xmlns="http://www.w3.org/2000/svg">
<rect width="768" height="1024" fill="#684BB1"/>
<path fill-rule="evenodd" clip-rule="evenodd" d="M0 543.829L654.723 0L768 0V150.658L0 642V543.829Z" fill="url(#paint0_linear_64143_325)"/>
<path fill-rule="evenodd" clip-rule="evenodd" d="M768 652.899L-3.6478e-05 209V453.141L768 738V652.899Z" fill="url(#paint1_linear_64143_325)"/>
<rect opacity="0.558175" x="681.572" y="329.728" width="57.344" height="57.344" rx="3" transform="rotate(45 681.572 329.728)" fill="url(#paint2_linear_64143_325)"/>
<rect opacity="0.386928" x="250.602" y="737.28" width="18.432" height="18.432" rx="1" transform="rotate(45 250.602 737.28)" fill="url(#paint3_linear_64143_325)"/>
<rect opacity="0.386928" x="337.363" y="679.936" width="36.864" height="36.864" rx="1" transform="rotate(45 337.363 679.936)" fill="url(#paint4_linear_64143_325)"/>
<rect opacity="0.386928" x="286.163" y="157.696" width="28.672" height="28.672" rx="1" transform="rotate(45 286.163 157.696)" fill="url(#paint5_linear_64143_325)"/>
<rect opacity="0.386928" x="665.643" y="679.936" width="34.816" height="34.816" rx="1" transform="rotate(45 665.643 679.936)" fill="url(#paint6_linear_64143_325)"/>
<rect opacity="0.503418" x="130.249" y="517.732" width="86.016" height="86.016" rx="3" transform="rotate(45 130.249 517.732)" fill="url(#paint7_linear_64143_325)"/>
<defs>
<linearGradient id="paint0_linear_64143_325" x1="882.38" y1="-1389.66" x2="-567.552" y2="238.605" gradientUnits="userSpaceOnUse">
<stop stop-color="#FF52C1"/>
<stop offset="1" stop-color="#9952FF" stop-opacity="0.01"/>
</linearGradient>
<linearGradient id="paint1_linear_64143_325" x1="-114.38" y1="-936.06" x2="1032.97" y2="627.628" gradientUnits="userSpaceOnUse">
<stop stop-color="#FF52C1"/>
<stop offset="1" stop-color="#9952FF" stop-opacity="0.01"/>
</linearGradient>
<linearGradient id="paint2_linear_64143_325" x1="653.697" y1="368.203" x2="724.906" y2="448.821" gradientUnits="userSpaceOnUse">
<stop stop-color="#FF52C1"/>
<stop offset="1" stop-color="#9952FF"/>
</linearGradient>
<linearGradient id="paint3_linear_64143_325" x1="241.641" y1="749.647" x2="264.53" y2="775.56" gradientUnits="userSpaceOnUse">
<stop stop-color="#FF52C1"/>
<stop offset="1" stop-color="#9952FF"/>
</linearGradient>
<linearGradient id="paint4_linear_64143_325" x1="319.443" y1="704.67" x2="365.22" y2="756.496" gradientUnits="userSpaceOnUse">
<stop stop-color="#FF52C1"/>
<stop offset="1" stop-color="#9952FF"/>
</linearGradient>
<linearGradient id="paint5_linear_64143_325" x1="272.225" y1="176.934" x2="307.83" y2="217.242" gradientUnits="userSpaceOnUse">
<stop stop-color="#FF52C1"/>
<stop offset="1" stop-color="#9952FF"/>
</linearGradient>
<linearGradient id="paint6_linear_64143_325" x1="648.718" y1="703.296" x2="691.952" y2="752.242" gradientUnits="userSpaceOnUse">
<stop stop-color="#FF52C1"/>
<stop offset="1" stop-color="#9952FF"/>
</linearGradient>
<linearGradient id="paint7_linear_64143_325" x1="88.4352" y1="575.445" x2="195.25" y2="696.371" gradientUnits="userSpaceOnUse">
<stop stop-color="#FF52C1"/>
<stop offset="1" stop-color="#9952FF"/>
</linearGradient>
</defs>
</svg>
